<svg width="18" height="18" viewBox="0 0 18 18" fill="none" xmlns="http://www.w3.org/2000/svg">
<rect opacity="0.25" x="0.224747" y="0.224747" width="17.0808" height="17.0808" rx="8.5404" stroke="#0A142F" stroke-width="0.449495"/>
<path fill-rule="evenodd" clip-rule="evenodd" d="M7.19191 11.6869H5.84343V7.64142H7.19191V11.6869Z" fill="#0A142F"/>
<path fill-rule="evenodd" clip-rule="evenodd" d="M6.51366 6.74244H6.506C6.10358 6.74244 5.84343 6.44263 5.84343 6.06796C5.84343 5.68536 6.11151 5.39395 6.52156 5.39395C6.93162 5.39395 7.18413 5.68536 7.19191 6.06796C7.19191 6.44263 6.93162 6.74244 6.51366 6.74244Z" fill="#0A142F"/>
<path fill-rule="evenodd" clip-rule="evenodd" d="M12.1363 11.6868H10.8112V9.57216C10.8112 9.04101 10.6195 8.67858 10.1398 8.67858C9.77368 8.67858 9.55562 8.92291 9.45984 9.15891C9.42481 9.24348 9.41621 9.36132 9.41621 9.47945V11.6869H8.09091C8.09091 11.6869 8.10838 8.10522 8.09091 7.73434H9.41621V8.29418C9.59208 8.02505 9.90708 7.64142 10.6106 7.64142C11.4826 7.64142 12.1364 8.20646 12.1364 9.4205L12.1363 11.6868Z" fill="#0A142F"/>
</svg>
