<svg width="5" height="5" viewBox="0 0 5 5" fill="none" xmlns="http://www.w3.org/2000/svg">
<path d="M4.5 4.49999L3.48665 3.48663M3.48665 3.48663C3.65999 3.31329 3.79749 3.10751 3.8913 2.88103C3.98511 2.65456 4.03339 2.41182 4.03339 2.16668C4.03339 1.92154 3.98511 1.67881 3.8913 1.45233C3.79749 1.22585 3.65999 1.02007 3.48665 0.84673C3.31331 0.673391 3.10753 0.535892 2.88105 0.442081C2.65457 0.348271 2.41183 0.299988 2.1667 0.299988C1.92156 0.299988 1.67882 0.348271 1.45234 0.442081C1.22587 0.535892 1.02008 0.673391 0.846745 0.84673C0.496672 1.1968 0.300003 1.6716 0.300003 2.16668C0.300003 2.66176 0.496672 3.13656 0.846745 3.48663C1.19682 3.83671 1.67162 4.03337 2.1667 4.03337C2.66177 4.03337 3.13658 3.83671 3.48665 3.48663Z" stroke="#4B332F" stroke-width="0.6" stroke-linecap="round" stroke-linejoin="round"/>
</svg>
