<svg width="18" height="18" viewBox="0 0 18 18" fill="none" xmlns="http://www.w3.org/2000/svg">
<rect opacity="0.25" x="0.224747" y="0.224747" width="17.0808" height="17.0808" rx="8.5404" stroke="#0A142F" stroke-width="0.449495"/>
<path fill-rule="evenodd" clip-rule="evenodd" d="M8.68075 7.60822L8.69342 7.82208L8.48231 7.79589C7.71387 7.69551 7.04254 7.35508 6.47254 6.78333L6.19387 6.49963L6.1221 6.70913C5.9701 7.17613 6.06721 7.66932 6.38387 8.00103C6.55276 8.18434 6.51476 8.21052 6.22343 8.10141C6.1221 8.06649 6.03343 8.04031 6.02498 8.0534C5.99543 8.08395 6.09676 8.48112 6.17698 8.63825C6.28676 8.85647 6.51054 9.07033 6.75543 9.1969L6.96231 9.29729L6.71743 9.30165C6.48098 9.30165 6.47254 9.30602 6.49787 9.39767C6.58232 9.68136 6.91587 9.98252 7.28742 10.1135L7.5492 10.2051L7.3212 10.3448C6.98342 10.5455 6.58654 10.659 6.18965 10.6677C5.99965 10.6721 5.84343 10.6896 5.84343 10.7027C5.84343 10.7463 6.35854 10.9907 6.65831 11.0867C7.55764 11.3704 8.62586 11.2482 9.42808 10.7638C9.99808 10.419 10.5681 9.73374 10.8341 9.07033C10.9776 8.71681 11.1212 8.07086 11.1212 7.76098C11.1212 7.56021 11.1339 7.53402 11.3703 7.29398C11.5096 7.15431 11.6405 7.00155 11.6658 6.95791C11.7081 6.87498 11.7038 6.87498 11.4885 6.94918C11.1296 7.08011 11.079 7.06266 11.2563 6.86625C11.3872 6.72659 11.5434 6.47345 11.5434 6.39925C11.5434 6.38616 11.4801 6.40798 11.4083 6.44726C11.3323 6.49091 11.1634 6.55637 11.0367 6.59565L10.8087 6.66985L10.6019 6.52582C10.4879 6.44726 10.3274 6.35997 10.243 6.33378C10.0276 6.27268 9.6983 6.28141 9.50408 6.35124C8.9763 6.54764 8.64275 7.05393 8.68075 7.60822Z" fill="#0A142F"/>
</svg>
